# xmcd
#
# Track frame offsets:
#	150
#	102633
#	132730
#	157605
#	174542
#
# Disc length: 2569 seconds
#
# Revision: 3
# Processed by: cddbd v1.5.2PL0 Copyright (c) Steve Scherf et al.
# Submitted via: audiograbber 1.83.01
#
DISCID=3d0a0705
DTITLE=Kraftwerk - Der Katalog [CD 1) - Autobahn [remastered 2009]
DYEAR=1974
DGENRE=Electronic
TTITLE0=Autobahn
TTITLE1=Kometenmelodie 1
TTITLE2=Kometenmelodie 2
TTITLE3=Mitternacht
TTITLE4=Morgenspaziergang
EXTD=
EXTT0=
EXTT1=
EXTT2=
EXTT3=
EXTT4=
PLAYORDER=
